<svg xmlns="http://www.w3.org/2000/svg"  viewBox="0 0 96 96" width="1600px" height="1600px" baseProfile="basic"><path fill="#e0e722" d="M62.479,82.172c-3.034,0-6.587-0.035-10.67-0.075c-7.84-0.078-17.598-0.173-29.79-0.097	c-1.848,0.006-3.623-0.708-4.949-2.026C15.734,78.647,15,76.881,15,75V43c0-1.657,1.343-3,3-3s3,1.343,3,3v32	c0,0.366,0.188,0.607,0.299,0.718C21.429,75.847,21.651,76,21.975,76c0.003,0,0.005,0,0.007,0	c12.242-0.077,22.025,0.02,29.886,0.097c8.587,0.084,14.79,0.146,18.584-0.091c4.319-0.27,4.587-0.727,4.688-4.195	c0.057-1.922,0.012-4.865-0.045-8.59C75.018,58.2,74.914,51.322,75,42.969C75.018,41.323,76.357,40,77.999,40	c0.011,0,0.021,0,0.032,0c1.656,0.017,2.985,1.375,2.969,3.031c-0.086,8.276,0.018,15.109,0.094,20.099	c0.058,3.799,0.103,6.8,0.043,8.855c-0.227,7.786-4.286,9.632-10.313,10.008C68.694,82.127,65.919,82.172,62.479,82.172z" opacity=".3"/><path fill="#e0e722" d="M62.482,81.172c-3.029,0-6.58-0.035-10.664-0.075C43.975,81.02,34.211,80.925,22.013,81	c-0.013,0-0.025,0-0.038,0c-1.583,0-3.073-0.615-4.2-1.736C16.63,78.127,16,76.613,16,75V43c0-1.104,0.896-2,2-2s2,0.896,2,2v32	c0,0.54,0.211,1.046,0.594,1.427c0.374,0.372,0.843,0.593,1.394,0.573c12.229-0.077,22.011,0.02,29.87,0.097	c8.605,0.084,14.824,0.146,18.655-0.093c4.717-0.294,5.505-1.018,5.626-5.164c0.057-1.945,0.012-4.897-0.045-8.634	C76.018,58.19,75.914,51.32,76,42.979C76.012,41.882,76.904,41,78,41c0.007,0,0.014,0,0.021,0c1.104,0.012,1.991,0.916,1.979,2.021	c-0.086,8.29,0.018,15.13,0.094,20.125c0.057,3.787,0.103,6.778,0.043,8.811c-0.206,7.084-3.593,8.679-9.374,9.04	C68.655,81.127,65.9,81.172,62.482,81.172z" opacity=".3"/><path fill="#d22730" d="M56.036,77c-1.657,0-3-1.343-3-3V56.943c-4.437-0.143-8.925-0.289-10.068,0.2	c-0.042,0.168-0.104,0.55-0.109,1.33c-0.007,1.016,0.035,2.396,0.083,3.993c0.087,2.857,0.205,6.77,0.125,11.324	c-0.03,1.656-1.424,3.003-3.053,2.947c-1.657-0.029-2.976-1.396-2.947-3.052c0.078-4.41-0.032-8.085-0.122-11.037	c-0.05-1.656-0.093-3.086-0.086-4.212c0.012-1.884,0.246-4.023,1.888-5.602c2.37-2.279,6.139-2.156,14.388-1.888	c0.002,0,0.005,0,0.008,0c1.502,0,3.006,0.624,4.138,1.755c1.133,1.133,1.757,2.64,1.757,4.243V74	C59.036,75.657,57.693,77,56.036,77z" opacity=".3"/><path fill="#d22730" d="M56.036,76c-1.104,0-2-0.896-2-2V56.943c0-0.36-0.184-0.598-0.293-0.707	s-0.346-0.292-0.706-0.292l0,0c-5.383-0.174-9.976-0.325-10.825,0.494c-0.156,0.15-0.345,0.625-0.354,2.029	c-0.007,1.035,0.035,2.423,0.084,4.03c0.091,3.006,0.204,6.747,0.124,11.276c-0.02,1.092-0.911,1.965-1.999,1.965	c-0.013,0-0.024,0-0.036,0c-1.104-0.02-1.984-0.931-1.965-2.035c0.079-4.434-0.033-8.122-0.122-11.085	c-0.05-1.646-0.093-3.068-0.086-4.176c0.011-1.675,0.207-3.566,1.581-4.887c2.066-1.986,5.699-1.867,13.662-1.609	c0.001,0,0.003,0,0.005,0c1.269,0,2.522,0.52,3.466,1.463c0.943,0.944,1.464,2.2,1.464,3.536V74C58.036,75.104,57.141,76,56.036,76z" opacity=".3"/><path fill="#d22730" d="M12.999,43.197c-0.877,0-1.745-0.382-2.338-1.118c-1.04-1.29-0.836-3.179,0.454-4.218	l30.493-24.564c6.695-6.042,14.488,0.93,19.15,5.104c0.178,0.158,0.354,0.316,0.526,0.471c0.334-2.329,1.6-3.894,3.859-4.778	c1.209-0.473,2.841-0.501,5.204-0.493l0.579,0.001c1.888,0,3.082,0.812,3.75,1.493c1.805,1.837,1.756,4.534,1.717,6.7	c-0.006,0.283-0.011,0.56-0.011,0.825c0,1.633-0.103,3.061-0.202,4.442c-0.076,1.065-0.155,2.164-0.19,3.395	c0.824,1.212,4.294,3.805,5.821,4.947c1.855,1.387,2.852,2.144,3.444,2.845c1.068,1.266,0.908,3.159-0.358,4.228	c-1.266,1.068-3.159,0.908-4.228-0.357c-0.264-0.274-1.527-1.22-2.45-1.909c-5.167-3.861-8.299-6.424-8.238-9.451	c0.03-1.56,0.124-2.865,0.215-4.127c0.096-1.334,0.187-2.595,0.187-4.012c0-0.301,0.006-0.614,0.012-0.934	c0.01-0.561,0.026-1.479-0.04-2.085h-0.03c-0.882-0.002-2.515-0.01-3.059,0.107c-0.016,0.006-0.029,0.013-0.043,0.019	c-0.004,0.032-0.008,0.07-0.013,0.113c-0.056,0.589-0.073,1.162-0.091,1.683c-0.062,1.825-0.138,4.097-2.193,5.14	c-0.9,0.458-2.377,0.733-4.276-0.562c-1.188-0.809-2.502-1.984-3.893-3.229c-5.613-5.023-8.88-7.186-11.168-5.085	c-0.048,0.044-0.097,0.086-0.147,0.127L14.879,42.533C14.324,42.979,13.659,43.197,12.999,43.197z M67.255,19.557L67.255,19.557	L67.255,19.557z" opacity=".3"/><path fill="#d22730" d="M12.998,42.197c-0.584,0-1.163-0.255-1.559-0.745c-0.692-0.86-0.558-2.12,0.303-2.813	l30.516-24.582c6.036-5.474,13.134,0.881,17.834,5.088c0.718,0.642,1.412,1.263,2.046,1.795c0.019-0.5,0.044-1.032,0.096-1.574	c0.129-1.364,0.609-3.299,3.275-4.342c1.043-0.408,2.591-0.439,4.836-0.425l0.583,0.001c1.541,0,2.502,0.649,3.037,1.193	c1.511,1.539,1.466,4.002,1.43,5.981c-0.006,0.289-0.011,0.572-0.011,0.843c0,1.597-0.097,2.944-0.199,4.371	c-0.083,1.161-0.17,2.359-0.2,3.733c0.514,1.21,4.507,4.194,6.229,5.481c1.795,1.342,2.757,2.071,3.278,2.689	c0.713,0.844,0.605,2.106-0.238,2.818c-0.843,0.712-2.105,0.607-2.818-0.238c-0.274-0.315-1.573-1.286-2.616-2.065	c-4.768-3.563-7.888-6.088-7.838-8.63c0.031-1.534,0.124-2.826,0.214-4.075c0.097-1.353,0.188-2.63,0.188-4.084	c0-0.295,0.006-0.603,0.011-0.916c0.017-0.874,0.049-2.68-0.274-3.094c-0.009,0.005-0.075-0.009-0.192-0.008L70.329,18.6	c-1.002-0.002-2.873-0.011-3.377,0.155c-0.646,0.253-0.679,0.377-0.736,0.99c-0.058,0.61-0.077,1.204-0.095,1.744	c-0.061,1.803-0.118,3.506-1.646,4.282c-0.962,0.487-2.06,0.322-3.262-0.496c-1.134-0.772-2.423-1.926-3.789-3.148	c-5.175-4.633-9.382-7.95-12.511-5.076c-0.031,0.029-0.064,0.057-0.098,0.084L14.252,41.754	C13.882,42.052,13.438,42.197,12.998,42.197z" opacity=".3"/><path fill="#0fd2ff" d="M48.125,43.003c-0.418,0-0.844-0.034-1.272-0.104c-3.496-0.573-5.81-3.32-5.758-6.836	c-0.05-3.313,2.167-6.042,5.517-6.703c3.44-0.68,6.807,1.037,8.006,4.081c0.332,0.841,0.257,1.742-0.13,2.485	c0.421,0.712,0.547,1.595,0.274,2.445C53.857,41.19,51.176,43.003,48.125,43.003z M48.089,35.216c-0.107,0-0.215,0.01-0.315,0.03	c-0.689,0.136-0.684,0.514-0.679,0.817c-0.005,0.386-0.011,0.793,0.729,0.915c0.41,0.069,1.092-0.025,1.225-0.44	c0.053-0.165,0.118-0.321,0.195-0.469c-0.08-0.135-0.15-0.278-0.209-0.429C48.925,35.361,48.502,35.216,48.089,35.216z" opacity=".3"/><path fill="#0fd2ff" d="M48.122,42.003c-0.364,0-0.734-0.03-1.107-0.091c-2.987-0.49-4.964-2.834-4.92-5.834	c-0.043-2.888,1.806-5.163,4.711-5.737c2.96-0.583,5.859,0.872,6.882,3.466c0.302,0.766,0.098,1.607-0.452,2.153	c0.572,0.51,0.823,1.328,0.574,2.105C53.04,40.463,50.743,42.003,48.122,42.003z M48.091,34.216c-0.175,0-0.347,0.017-0.511,0.049	c-0.688,0.136-1.504,0.561-1.485,1.813c-0.02,1.354,0.842,1.768,1.567,1.887c0.754,0.123,2.003-0.073,2.339-1.122	c0.102-0.316,0.274-0.59,0.495-0.809c-0.228-0.202-0.412-0.459-0.53-0.761C49.679,34.545,48.866,34.216,48.091,34.216z" opacity=".3"/><path fill="#e0e722" d="M62.486,80.172c-3.024,0-6.574-0.035-10.658-0.075C43.98,80.021,34.215,79.924,22.006,80	c-0.01,0-0.021,0-0.031,0c-1.316,0-2.558-0.512-3.496-1.445C17.525,77.607,17,76.345,17,75V43c0-0.552,0.447-1,1-1s1,0.448,1,1v32	c0,0.808,0.315,1.567,0.889,2.136C20.449,77.694,21.189,78,21.976,78c0.006,0,0.012,0,0.019,0	c12.222-0.077,21.999,0.02,29.854,0.097c8.626,0.085,14.86,0.146,18.728-0.095c4.878-0.304,6.419-1.19,6.563-6.133	c0.058-1.966,0.013-4.928-0.044-8.678C77.018,58.18,76.914,51.317,77,42.99c0.006-0.549,0.452-0.99,1-0.99c0.003,0,0.007,0,0.011,0	c0.552,0.006,0.995,0.458,0.989,1.01c-0.086,8.302,0.018,15.15,0.094,20.15c0.057,3.774,0.103,6.756,0.044,8.767	c-0.187,6.389-2.987,7.73-8.438,8.07C68.617,80.128,65.883,80.172,62.486,80.172z"/><path fill="#d22730" d="M56.036,75c-0.553,0-1-0.448-1-1V56.943c0-0.534-0.208-1.037-0.586-1.414	c-0.377-0.377-0.879-0.585-1.413-0.585c0,0,0,0-0.001,0c-6.473-0.21-10.364-0.337-11.518,0.773c-0.459,0.441-0.65,1.236-0.66,2.744	c-0.007,1.053,0.035,2.45,0.084,4.066c0.091,2.995,0.203,6.723,0.124,11.229c-0.01,0.546-0.456,0.982-1,0.982	c-0.006,0-0.012,0-0.018,0c-0.553-0.01-0.992-0.465-0.982-1.018c0.079-4.458-0.033-8.159-0.123-11.133	c-0.049-1.637-0.092-3.05-0.085-4.14c0.01-1.541,0.171-3.112,1.274-4.173c1.762-1.693,5.267-1.579,12.936-1.331	c0.001,0,0.002,0,0.004,0c1.034,0,2.038,0.416,2.792,1.171c0.756,0.755,1.172,1.76,1.172,2.828V74	C57.036,74.552,56.589,75,56.036,75z"/><path fill="#d22730" d="M12.998,41.197c-0.293,0-0.582-0.127-0.779-0.373c-0.347-0.43-0.279-1.06,0.151-1.406l30.563-24.621	c5.326-4.896,11.781,0.876,16.491,5.093c1.289,1.153,2.507,2.243,3.477,2.903c0.048,0.032,0.091,0.061,0.13,0.085	c0.055-0.399,0.075-1.008,0.091-1.492c0.021-0.597,0.043-1.253,0.107-1.926c0.12-1.269,0.528-2.678,2.644-3.505	c0.877-0.343,2.399-0.369,4.468-0.356l0.587,0.001c0.959,0,1.741,0.301,2.323,0.894c1.217,1.239,1.178,3.376,1.144,5.263	c-0.006,0.295-0.011,0.584-0.011,0.861c0,1.561-0.096,2.891-0.196,4.299c-0.087,1.211-0.178,2.464-0.206,3.92	c-0.024,1.191,4.642,4.678,6.634,6.167c1.687,1.26,2.662,2,3.113,2.533c0.355,0.422,0.303,1.053-0.12,1.409	c-0.423,0.356-1.053,0.302-1.409-0.119c-0.324-0.385-1.573-1.318-2.781-2.221c-4.38-3.273-7.478-5.75-7.437-7.809	c0.03-1.508,0.122-2.787,0.211-4.023c0.099-1.371,0.191-2.667,0.191-4.156c0-0.289,0.006-0.59,0.011-0.898	c0.026-1.418,0.059-3.185-0.57-3.825c-0.125-0.127-0.354-0.295-0.896-0.295L70.333,17.6c-1.243-0.005-3.143-0.012-3.731,0.218	c-1.073,0.42-1.294,0.905-1.382,1.832c-0.06,0.631-0.079,1.246-0.099,1.804c-0.055,1.629-0.098,2.916-1.1,3.424	c-0.922,0.47-1.918-0.209-2.245-0.431c-1.08-0.734-2.346-1.867-3.686-3.067c-5.368-4.806-10.119-8.499-13.854-5.068L13.624,40.976	C13.439,41.125,13.218,41.197,12.998,41.197z"/><path fill="#0fd2ff" d="M48.08,40.998c-0.306,0-0.609-0.024-0.904-0.073c-2.517-0.413-4.118-2.31-4.081-4.833	c-0.035-2.411,1.497-4.295,3.904-4.771c2.134-0.424,4.801,0.422,5.758,2.852c0.202,0.514-0.051,1.095-0.564,1.297	c-0.513,0.204-1.094-0.049-1.297-0.563c-0.556-1.411-2.188-1.883-3.509-1.623c-0.546,0.107-2.324,0.628-2.292,2.809	c-0.033,2.283,1.833,2.765,2.405,2.859c1.356,0.222,2.979-0.325,3.453-1.803c0.168-0.525,0.729-0.815,1.258-0.646	c0.525,0.168,0.815,0.732,0.646,1.258C52.147,39.973,50.058,40.998,48.08,40.998z"/></svg>